# xmcd
#
# Track frame offsets: 
#        150
#        14011
#        27875
#        40937
#        52622
#        67122
#        81818
#        95880
#        109456
#        121943
#        136275
#        149901
#        163801
#        176106
#
# Disc length: 2550 seconds
#
# Revision: 3
# Processed by: cddbd v1.5.2PL0 Copyright (c) Steve Scherf et al.
# Submitted via: ExactAudioCopy v0.99pb5
#
DISCID=d009f40e
DTITLE=Various Artist - Southern Country Blues [CD2]
DYEAR=1997
DGENRE=Blues
TTITLE0=Barefoot Bill  - Bad Boy
TTITLE1=Jaybird Coleman - Man Trouble Blues
TTITLE2=Lucille Bogan  - Down in Boogie Alley
TTITLE3=Papa Charley Jackson - Papa's Lawdy, Lawdy Blues
TTITLE4=Blind Blake - Hey, Hey, Daddy Blues
TTITLE5=Ma Rainey - Black Eye Blues
TTITLE6=Peg Leg Howell - Coal Man Blues
TTITLE7=Barbecue Bob - Diddle-Da Diddle
TTITLE8=Andrew and Jim Baxter - Georgia Stomp
TTITLE9=Blind Willie McTell - Love Changing Blues
TTITLE10=Josh White - Silicosis is Killin' Me
TTITLE11=Blind Gary Davis - Cross and Evil Woman Blues
TTITLE12=Blind Boy Fuller - You Got to Have Your Dollar
TTITLE13=Luke Jordan - Cocaine Blues
EXTD=submitted by william hale YEAR: 1997
EXTT0=
EXTT1=
EXTT2=
EXTT3=
EXTT4=
EXTT5=
EXTT6=
EXTT7=
EXTT8=
EXTT9=
EXTT10=
EXTT11=
EXTT12=
EXTT13=
PLAYORDER=
